<?xml version="1.0" encoding="utf-8" standalone="yes"?>
<!DOCTYPE svg PUBLIC "-//W3C//DTD SVG 1.1//EN" "http://www.w3.org/Graphics/SVG/1.1/DTD/svg11.dtd">
<svg width="831" height="686" viewBox="0 0 831 686" style="fill:none;stroke:none;fill-rule:evenodd;clip-rule:evenodd;stroke-linecap:round;stroke-linejoin:round;stroke-miterlimit:1.5;" version="1.1" xmlns="http://www.w3.org/2000/svg" xmlns:xlink="http://www.w3.org/1999/xlink"><style id="fontImports">@import url("https://fonts.googleapis.com/css2?family=Roboto:wght@400;700&amp;display=block");</style><g id="items" style="isolation: isolate"><g id="blend" style="mix-blend-mode: normal"><g id="g-root-6.cu_sy_hrjngobyvpjh-fill" data-item-order="-170332" transform="translate(277.7290954589844, 148.996337890625)"><g id="6.cu_sy_hrjngobyvpjh-fill" stroke="none" fill="#e55753"><g><path d="M 193.66 144.427985L 135.461 43.625185C 116.896 11.470385 75.7802 0.453585 43.6254 19.018185C 11.4707 37.582685 0.4535 78.698585 19.0181 110.852985L 27.2808 125.164985L 82.7297 125.164985L 60.6047 86.843285C 55.3006 77.656185 58.4483 65.908785 67.6354 60.604585C 76.8225 55.300485 88.5699 58.448185 93.8741 67.635285L 165.935 192.447985L 193.66 144.427985Z"></path></g></g></g><g id="g-root-5.cu_sy_1q6d5s8byvpce-fill" data-item-order="-170328" transform="translate(205.70993041992188, 273.76806640625)"><g id="5.cu_sy_1q6d5s8byvpce-fill" stroke="none" fill="#de8431"><g><path d="M 193.625 10L 77.228 10.000011C 40.0988 10.000014 9.999997 40.0991 10 77.2282C 10.000003 114.357 40.0988 144.456 77.228 144.456L 93.7534 144.456L 121.478 96.4363L 77.228 96.4363C 66.6196 96.4363 58.0199 87.8366 58.0199 77.2282C 58.0199 66.6199 66.6196 58.0202 77.228 58.0202L 221.35 58.0202L 193.625 10Z"></path></g></g></g><g id="g-root-4.cu_sy_18f35agbyvrpj-fill" data-item-order="-170324" transform="translate(277.7286071777344, 331.339599609375)"><g id="4.cu_sy_18f35agbyvrpj-fill" stroke="none" fill="#e0cb15"><g><path d="M 77.2168 10.000009L 19.0181 110.803C 0.4535 142.958 11.4707 184.074 43.6254 202.638C 75.7802 221.203 116.896 210.186 135.461 178.031L 143.724 163.72L 115.999 115.7L 93.8741 154.021C 88.5699 163.208 76.8225 166.356 67.6354 161.052C 58.4483 155.748 55.3006 144 60.6047 134.813L 132.666 10L 77.2168 10.000009Z"></path></g></g></g><g id="g-root-3.cu_sy_qoflvsbyvqww-fill" data-item-order="-170320" transform="translate(372.609130859375, 350.54736328125)"><g id="3.cu_sy_qoflvsbyvqww-fill" stroke="none" fill="#92bd39"><g><path d="M 10 58.0202L 68.1987 158.823C 86.7633 190.978 127.879 201.995 160.034 183.43C 192.189 164.866 203.206 123.75 184.641 91.5951L 176.379 77.2836L 120.93 77.2836L 143.055 115.605C 148.359 124.792 145.211 136.54 136.024 141.844C 126.837 147.148 115.09 144 109.7854 134.813L 37.7244 10L 10 58.0202Z"></path></g></g></g><g id="g-root-2.cu_sy_ddlklkbyvpc1-fill" data-item-order="-170316" transform="translate(416.9381103515625, 273.76806640625)"><g id="2.cu_sy_ddlklkbyvpc1-fill" stroke="none" fill="#3cc583"><g><path d="M 37.7245 144.456L 154.122 144.456C 191.251 144.456 221.35 114.357 221.35 77.2282C 221.35 40.0991 191.251 9.999996 154.122 10L 137.596 10.000001L 109.872 58.0202L 154.122 58.0202C 164.73 58.0202 173.33 66.6199 173.33 77.2282C 173.33 87.8365 164.73 96.4363 154.122 96.4363L 10 96.4363L 37.7245 144.456Z"></path></g></g></g><g id="g-root-1.cu_sy_1lrslu0byvsaq-fill" data-item-order="-170312" transform="translate(422.54510498046875, 148.99658203125)"><g id="1.cu_sy_1lrslu0byvsaq-fill" stroke="none" fill="#1eabda"><g><path d="M 76.5067 211.656984L 134.705 110.852984C 153.27 78.698584 142.253 37.582684 110.098 19.018184C 77.9433 0.453584 36.8273 11.470384 18.2627 43.625184L 10 57.936684L 37.7245 105.956784L 59.8494 67.635184C 65.1536 58.448184 76.901 55.300484 86.0881 60.604584C 95.2752 65.908784 98.4229 77.656184 93.1188 86.843284L 21.0578 211.656984L 76.5067 211.656984Z"></path></g></g></g><g id="g-root-tx_webdevel_zlbkawbyvrij-fill" data-item-order="0" transform="translate(242.99951171875, 38.996337890625)"><g id="tx_webdevel_zlbkawbyvrij-fill" stroke="none" fill="#484848"><g><text style="font: 20px &quot;Roboto&quot;, sans-serif; white-space: pre;" font-size="20px" font-family="'Roboto', sans-serif"><tspan x="16.55" y="33.83" dominant-baseline="ideographic">Web Development Expertise Overview</tspan></text></g></g></g><g id="g-root-tx_userinte_4l2xs8byx4p2-fill" data-item-order="0" transform="translate(572.99951171875, 98.996337890625)"><g id="tx_userinte_4l2xs8byx4p2-fill" stroke="none" fill="#1eabda"><g><text style="font: bold 20px &quot;Roboto&quot;, sans-serif; white-space: pre;" font-weight="bold" font-size="20px" font-family="'Roboto', sans-serif"><tspan x="12" y="33.83" dominant-baseline="ideographic">User Interface </tspan><tspan x="12" y="57.83" dominant-baseline="ideographic">Design</tspan></text></g></g></g><g id="g-root-tx_aitools_zofxqgbyx62v-fill" data-item-order="0" transform="translate(177.07571411132812, 122.996337890625)"><g id="tx_aitools_zofxqgbyx62v-fill" stroke="none" fill="#e55753"><g><text style="font: bold 20px &quot;Roboto&quot;, sans-serif; white-space: pre;" font-weight="bold" font-size="20px" font-family="'Roboto', sans-serif"><tspan x="18.92" y="33.83" dominant-baseline="ideographic">AI Tools</tspan></text></g></g></g><g id="g-root-tx_utilizat_1hduiywbyvrbg-fill" data-item-order="0" transform="translate(104.99954223632812, 170.996337890625)"><g id="tx_utilizat_1hduiywbyvrbg-fill" stroke="none" fill="#543a3a"><g><text style="font: 20px &quot;Roboto&quot;, sans-serif; white-space: pre;" font-size="20px" font-family="'Roboto', sans-serif"><tspan x="28.48" y="33.83" dominant-baseline="ideographic">Utilization of AI </tspan><tspan x="16.32" y="57.83" dominant-baseline="ideographic">tools to enhance </tspan><tspan x="60.07" y="81.83" dominant-baseline="ideographic">productivity</tspan></text></g></g></g><g id="g-root-tx_focusonc_zs6s94byvpxl-fill" data-item-order="0" transform="translate(572.99951171875, 159.35693359375)"><g id="tx_focusonc_zs6s94byvpxl-fill" stroke="none" fill="#32444a"><g><text style="font: 20px &quot;Roboto&quot;, sans-serif; white-space: pre;" font-size="20px" font-family="'Roboto', sans-serif"><tspan x="12" y="33.83" dominant-baseline="ideographic">Focus on creating </tspan><tspan x="12" y="57.83" dominant-baseline="ideographic">visually appealing </tspan><tspan x="12" y="81.83" dominant-baseline="ideographic">and responsive </tspan><tspan x="12" y="105.83" dominant-baseline="ideographic">designs</tspan></text></g></g></g><g id="g-root-tx_modernte_qpok20byx6h0-fill" data-item-order="0" transform="translate(652.07568359375, 266.996337890625)"><g id="tx_modernte_qpok20byx6h0-fill" stroke="none" fill="#3cc583"><g><text style="font: bold 20px &quot;Roboto&quot;, sans-serif; white-space: pre;" font-weight="bold" font-size="20px" font-family="'Roboto', sans-serif"><tspan x="12" y="33.83" dominant-baseline="ideographic">Modern </tspan><tspan x="12" y="57.83" dominant-baseline="ideographic">Technologies</tspan></text></g></g></g><g id="g-root-tx_seoknowl_1cy10ugbyx5hp-fill" data-item-order="0" transform="translate(26.999542236328125, 290.996337890625)"><g id="tx_seoknowl_1cy10ugbyx5hp-fill" stroke="none" fill="#de8431"><g><text style="font: bold 20px &quot;Roboto&quot;, sans-serif; white-space: pre;" font-weight="bold" font-size="20px" font-family="'Roboto', sans-serif"><tspan x="22.3" y="33.83" dominant-baseline="ideographic">SEO Knowledge</tspan></text></g></g></g><g id="g-root-tx_understa_90wfwobyvqit-fill" data-item-order="0" transform="translate(14.999542236328125, 326.996337890625)"><g id="tx_understa_90wfwobyvqit-fill" stroke="none" fill="#4c4034"><g><text style="font: 20px &quot;Roboto&quot;, sans-serif; white-space: pre;" font-size="20px" font-family="'Roboto', sans-serif"><tspan x="22.78" y="33.83" dominant-baseline="ideographic">Understanding of </tspan><tspan x="17.67" y="57.83" dominant-baseline="ideographic">SEO principles for </tspan><tspan x="46.08" y="81.83" dominant-baseline="ideographic">optimized web </tspan><tspan x="94.55" y="105.83" dominant-baseline="ideographic">presence</tspan></text></g></g></g><g id="g-root-tx_proficie_hzntl4byvq4o-fill" data-item-order="0" transform="translate(651.99951171875, 327.1259765625)"><g id="tx_proficie_hzntl4byvq4o-fill" stroke="none" fill="#374840"><g><text style="font: 20px &quot;Roboto&quot;, sans-serif; white-space: pre;" font-size="20px" font-family="'Roboto', sans-serif"><tspan x="12" y="33.83" dominant-baseline="ideographic">Proficiency in </tspan><tspan x="12" y="57.83" dominant-baseline="ideographic">HTML5, CSS3, </tspan><tspan x="12" y="81.83" dominant-baseline="ideographic">SASS, and </tspan><tspan x="12" y="105.83" dominant-baseline="ideographic">JavaScript</tspan></text></g></g></g><g id="g-root-tx_interact_1haq5jcbyx4ay-fill" data-item-order="0" transform="translate(152.99954223632812, 470.99609375)"><g id="tx_interact_1haq5jcbyx4ay-fill" stroke="none" fill="#e0cb15"><g><text style="font: bold 20px &quot;Roboto&quot;, sans-serif; white-space: pre;" font-weight="bold" font-size="20px" font-family="'Roboto', sans-serif"><tspan x="32.38" y="33.83" dominant-baseline="ideographic">Interactive </tspan><tspan x="15.83" y="57.83" dominant-baseline="ideographic">Applications</tspan></text></g></g></g><g id="g-root-tx_framewor_25288byx4az-fill" data-item-order="0" transform="translate(572.99951171875, 494.99609375)"><g id="tx_framewor_25288byx4az-fill" stroke="none" fill="#92bd39"><g><text style="font: bold 20px &quot;Roboto&quot;, sans-serif; white-space: pre;" font-weight="bold" font-size="20px" font-family="'Roboto', sans-serif"><tspan x="12" y="33.83" dominant-baseline="ideographic">Frameworks</tspan></text></g></g></g><g id="g-root-tx_developm_18k2xzcbyvr4e-fill" data-item-order="0" transform="translate(104.99954223632812, 530.99609375)"><g id="tx_developm_18k2xzcbyvr4e-fill" stroke="none" fill="#46432d"><g><text style="font: 20px &quot;Roboto&quot;, sans-serif; white-space: pre;" font-size="20px" font-family="'Roboto', sans-serif"><tspan x="35.7" y="33.83" dominant-baseline="ideographic">Development of </tspan><tspan x="83.65" y="57.83" dominant-baseline="ideographic">interactive </tspan><tspan x="13.95" y="81.83" dominant-baseline="ideographic">applications using </tspan><tspan x="104.83" y="105.83" dominant-baseline="ideographic">React.js</tspan></text></g></g></g><g id="g-root-tx_masteryo_1d1rvd4byvpcf-fill" data-item-order="0" transform="translate(572.99951171875, 530.99609375)"><g id="tx_masteryo_1d1rvd4byvpcf-fill" stroke="none" fill="#424736"><g><text style="font: 20px &quot;Roboto&quot;, sans-serif; white-space: pre;" font-size="20px" font-family="'Roboto', sans-serif"><tspan x="12" y="33.83" dominant-baseline="ideographic">Mastery of </tspan><tspan x="12" y="57.83" dominant-baseline="ideographic">Tailwind CSS and </tspan><tspan x="12" y="81.83" dominant-baseline="ideographic">Bootstrap for </tspan><tspan x="12" y="105.83" dominant-baseline="ideographic">styling</tspan></text></g></g></g><g id="g-root-6.cu_sy_hrjngobyvpjh-stroke" data-item-order="-170332" transform="translate(277.7290954589844, 148.996337890625)"><g id="6.cu_sy_hrjngobyvpjh-stroke" fill="none" stroke-linecap="round" stroke-linejoin="round" stroke-miterlimit="4" stroke="#ffffff" stroke-width="2"><g><path d="M 193.6595 144.428285L 135.4608 43.625185C 116.8962 11.470385 75.7802 0.453585 43.6254 19.018185C 11.4707 37.582685 0.4535 78.698585 19.0181 110.853385L 27.2808 125.164885L 82.7297 125.164885L 60.6047 86.843285C 55.3006 77.656185 58.4483 65.908785 67.6354 60.604585C 76.8225 55.300485 88.5699 58.448185 93.8741 67.635285L 165.9351 192.448485L 193.6595 144.428285Z"></path></g></g></g><g id="g-root-5.cu_sy_1q6d5s8byvpce-stroke" data-item-order="-170328" transform="translate(205.70993041992188, 273.76806640625)"><g id="5.cu_sy_1q6d5s8byvpce-stroke" fill="none" stroke-linecap="round" stroke-linejoin="round" stroke-miterlimit="4" stroke="#ffffff" stroke-width="2"><g><path d="M 193.6254 10L 77.228 10C 40.0988 10 10 40.0991 10 77.2282C 10 114.3574 40.0988 144.4565 77.228 144.4565L 93.7534 144.4565L 121.4779 96.4363L 77.228 96.4363C 66.6196 96.4363 58.0199 87.8366 58.0199 77.2282C 58.0199 66.6199 66.6196 58.0202 77.228 58.0202L 221.3499 58.0202L 193.6254 10Z"></path></g></g></g><g id="g-root-4.cu_sy_18f35agbyvrpj-stroke" data-item-order="-170324" transform="translate(277.7286071777344, 331.339599609375)"><g id="4.cu_sy_18f35agbyvrpj-stroke" fill="none" stroke-linecap="round" stroke-linejoin="round" stroke-miterlimit="4" stroke="#ffffff" stroke-width="2"><g><path d="M 77.2168 10L 19.0181 110.8032C 0.4535 142.958 11.4707 184.0739 43.6254 202.6384C 75.7802 221.203 116.8962 210.1862 135.4608 178.0314L 143.7235 163.7199L 115.9991 115.6997L 93.8741 154.0213C 88.5699 163.2084 76.8225 166.3561 67.6354 161.0519C 58.4483 155.7478 55.3006 144.0003 60.6047 134.8132L 132.6657 10L 77.2168 10Z"></path></g></g></g><g id="g-root-3.cu_sy_qoflvsbyvqww-stroke" data-item-order="-170320" transform="translate(372.609130859375, 350.54736328125)"><g id="3.cu_sy_qoflvsbyvqww-stroke" fill="none" stroke-linecap="round" stroke-linejoin="round" stroke-miterlimit="4" stroke="#ffffff" stroke-width="2"><g><path d="M 10 58.0202L 68.1987 158.8233C 86.7633 190.9781 127.8793 201.9949 160.0341 183.4303C 192.1889 164.8657 203.206 123.7498 184.6414 91.5951L 176.3787 77.2836L 120.9298 77.2836L 143.0548 115.6052C 148.3589 124.7923 145.2112 136.5397 136.0241 141.8438C 126.837 147.148 115.0896 144.0003 109.7854 134.8132L 37.7244 10L 10 58.0202Z"></path></g></g></g><g id="g-root-2.cu_sy_ddlklkbyvpc1-stroke" data-item-order="-170316" transform="translate(416.9381103515625, 273.76806640625)"><g id="2.cu_sy_ddlklkbyvpc1-stroke" fill="none" stroke-linecap="round" stroke-linejoin="round" stroke-miterlimit="4" stroke="#ffffff" stroke-width="2"><g><path d="M 37.7245 144.4565L 154.1219 144.4565C 191.2511 144.4564 221.3499 114.3573 221.3499 77.2282C 221.3499 40.0991 191.251 10 154.1219 10L 137.5964 10L 109.872 58.0202L 154.1219 58.0202C 164.7302 58.0202 173.3299 66.6199 173.3299 77.2282C 173.3299 87.8365 164.7302 96.4363 154.1219 96.4363L 10 96.4363L 37.7245 144.4565Z"></path></g></g></g><g id="g-root-1.cu_sy_1lrslu0byvsaq-stroke" data-item-order="-170312" transform="translate(422.54510498046875, 148.99658203125)"><g id="1.cu_sy_1lrslu0byvsaq-stroke" fill="none" stroke-linecap="round" stroke-linejoin="round" stroke-miterlimit="4" stroke="#ffffff" stroke-width="2"><g><path d="M 76.5067 211.656584L 134.7054 110.853384C 153.27 78.698584 142.2528 37.582684 110.0981 19.018184C 77.9433 0.453584 36.8273 11.470384 18.2627 43.625184L 10 57.936684L 37.7245 105.956784L 59.8494 67.635184C 65.1536 58.448184 76.901 55.300484 86.0881 60.604584C 95.2752 65.908784 98.4229 77.656184 93.1188 86.843284L 21.0578 211.656584L 76.5067 211.656584Z"></path></g></g></g><g id="g-root-tx_webdevel_zlbkawbyvrij-stroke" data-item-order="0" transform="translate(242.99951171875, 38.996337890625)"></g><g id="g-root-tx_userinte_4l2xs8byx4p2-stroke" data-item-order="0" transform="translate(572.99951171875, 98.996337890625)"></g><g id="g-root-tx_aitools_zofxqgbyx62v-stroke" data-item-order="0" transform="translate(177.07571411132812, 122.996337890625)"></g><g id="g-root-tx_utilizat_1hduiywbyvrbg-stroke" data-item-order="0" transform="translate(104.99954223632812, 170.996337890625)"></g><g id="g-root-tx_focusonc_zs6s94byvpxl-stroke" data-item-order="0" transform="translate(572.99951171875, 159.35693359375)"></g><g id="g-root-tx_modernte_qpok20byx6h0-stroke" data-item-order="0" transform="translate(652.07568359375, 266.996337890625)"></g><g id="g-root-tx_seoknowl_1cy10ugbyx5hp-stroke" data-item-order="0" transform="translate(26.999542236328125, 290.996337890625)"></g><g id="g-root-tx_understa_90wfwobyvqit-stroke" data-item-order="0" transform="translate(14.999542236328125, 326.996337890625)"></g><g id="g-root-tx_proficie_hzntl4byvq4o-stroke" data-item-order="0" transform="translate(651.99951171875, 327.1259765625)"></g><g id="g-root-tx_interact_1haq5jcbyx4ay-stroke" data-item-order="0" transform="translate(152.99954223632812, 470.99609375)"></g><g id="g-root-tx_framewor_25288byx4az-stroke" data-item-order="0" transform="translate(572.99951171875, 494.99609375)"></g><g id="g-root-tx_developm_18k2xzcbyvr4e-stroke" data-item-order="0" transform="translate(104.99954223632812, 530.99609375)"></g><g id="g-root-tx_masteryo_1d1rvd4byvpcf-stroke" data-item-order="0" transform="translate(572.99951171875, 530.99609375)"></g></g></g></svg>